<svg version="1.1" xmlns="http://www.w3.org/2000/svg" style="display: block;" viewBox="0 0 2048 2048" width="1024" height="1024" preserveAspectRatio="none">

<path transform="translate(0,0)" fill="rgb(72,48,41)" d="M 1177.55 63.4426 C 1212.46 62.5574 1271.46 73.8818 1305.48 81.2914 C 1396.02 101.831 1485.51 126.734 1573.65 155.913 C 1603.02 165.387 1633.35 175.444 1661.88 186.433 C 1717.17 207.724 1774.41 228.821 1821.82 265.149 C 1843.05 281.416 1857.48 304.774 1864.16 330.569 C 1874.93 372.189 1878.83 414.853 1883.15 457.476 C 1902.47 673.949 1899.16 891.568 1884.56 1108.21 C 1882.18 1143.47 1880.81 1178.96 1876.66 1214.03 C 1874.02 1236.27 1866.92 1258.16 1860.05 1279.43 C 1877.94 1288.58 1905.55 1301.84 1916.57 1320.12 C 1918.67 1323.59 1920.33 1338.14 1920.2 1342.05 C 1919.42 1363.8 1921.63 1493.23 1916.93 1506.9 C 1907.34 1515.17 1873.35 1532.85 1859.48 1540.63 L 1714.57 1620.91 L 1256.9 1871.92 C 1210.04 1897.48 1163.02 1922.76 1115.87 1947.78 C 1096.86 1957.91 1073.95 1971.36 1054.83 1980.33 C 1038.41 1977.38 1002.49 1965.26 985.695 1959.89 C 952.11 1949.34 918.591 1938.59 885.138 1927.62 C 837.092 1913.51 784.237 1894.75 736.148 1879.17 C 624.91 1843.36 513.903 1806.84 403.135 1769.61 L 240.789 1715.8 C 217.862 1708.32 194.979 1700.7 172.142 1692.94 C 158.561 1688.4 141.779 1683.25 128.762 1677.89 C 127.29 1664.58 127.112 1591.07 131.107 1582.01 C 141.087 1559.39 254.788 1461.87 282.216 1439.63 C 297.809 1426.99 314 1414.57 330.728 1403.46 C 342.717 1395.51 355.889 1390.06 369.165 1384.68 C 365.441 1381.61 361.788 1378.46 358.21 1375.22 C 310.044 1331.2 307.403 1265.99 301.951 1205.32 C 298.245 1164.08 295.391 1122.78 293.389 1081.42 C 290.112 988.984 289.775 896.463 292.38 804.001 C 293.939 704.305 299.459 604.711 308.927 505.454 C 314.641 448.044 318.967 347.233 358.596 304.613 C 366.689 295.98 376.168 288.759 386.641 283.25 C 401.853 275.283 425.338 266.534 441.657 260.14 C 501.589 236.655 564.25 218.117 625.899 199.478 C 710.328 173.824 795.231 149.76 880.565 127.298 C 948.461 108.9 1016.42 90.4386 1085.34 76.1935 C 1117.02 69.6457 1145.27 64.6457 1177.55 63.4426 z"/>
<path transform="translate(0,0)" fill="rgb(221,207,168)" d="M 432.785 280.977 C 443.901 279.197 487.763 286.128 500.136 288.35 C 589.151 304.338 679.521 328.914 766.588 353.441 C 883.945 386.084 1000.03 423.127 1114.61 464.49 C 1148.12 476.681 1180.78 491.104 1212.36 507.662 C 1326.84 567.776 1331.08 674.371 1335.66 788.552 C 1337.25 829.756 1338.36 870.978 1338.99 912.208 C 1340.69 1003.19 1340.44 1094.2 1338.24 1185.17 C 1336.14 1289.83 1331.47 1520.89 1284.05 1610.25 C 1263.49 1621.77 1237.96 1626.53 1214.78 1628.88 C 1184.64 1630.16 1145.35 1623.71 1115.65 1618.26 C 1031.55 1602.83 949.067 1578.68 867.696 1552.74 C 805.106 1532.83 742.769 1512.13 680.7 1490.66 C 630.434 1473.56 580.339 1455.97 530.422 1437.89 C 463.744 1414 363.66 1389.5 337.279 1316.78 C 319.571 1267.96 316.583 1199.68 313.5 1147.16 C 302.071 941.33 305.251 734.949 323.016 529.569 C 327.797 473.918 333.093 397.409 352 345.142 C 365.878 306.779 398.174 295.565 432.785 280.977 z"/>
<path transform="translate(0,0)" fill="rgb(72,48,41)" d="M 491.826 349.411 C 555.823 342.723 666.001 370.702 728.726 387.417 C 822.049 411.95 913.928 441.682 1003.93 476.472 C 1073.92 503.552 1148.86 533.2 1208.01 580.289 C 1268.3 628.272 1280.87 708.046 1289 780.783 C 1307.18 943.537 1309.17 1113.55 1278.97 1275.03 C 1261.28 1369.62 1243 1404.28 1142.87 1410.95 C 1076.59 1411.87 1020.35 1398.49 956.041 1384.47 C 820.907 1354.28 687.921 1315.17 557.957 1267.39 C 504.447 1248.01 405.924 1216.34 377.245 1164.5 C 354.438 1123.27 345.348 1048.57 340.182 1000.66 C 323.861 849.316 326.29 693.748 352.184 543.616 C 360.758 494.17 375.155 429.06 407.009 389.958 C 429.777 362.01 456.961 352.94 491.826 349.411 z"/>
<path transform="translate(0,0)" fill="rgb(253,252,251)" d="M 569.113 436.416 C 585.249 434.609 615.724 437.209 632.465 439.08 C 730.868 450.077 832.444 476.77 926.925 507.029 C 1020.38 538.09 1115.6 568.624 1202.25 616.16 C 1215.61 623.489 1236.67 635.205 1242.86 649.142 C 1258 683.267 1264.49 721.513 1269.76 758.258 C 1290.6 913.146 1291.17 1070.09 1271.48 1225.13 C 1268.71 1245.67 1264.3 1276.91 1257.97 1296.55 C 1230.41 1318.38 1207.71 1315.98 1173.19 1313.17 C 1034.49 1304.55 621.791 1200.27 520.549 1115.56 C 512.249 1108.62 504.752 1100.82 498.849 1091.72 C 472.014 1050.38 464.836 981.607 460.429 933.171 C 450.101 815.282 453.312 696.598 469.998 579.44 C 475.49 543.175 482.964 490.499 506.879 462.33 C 524.227 441.896 543.748 438.47 569.113 436.416 z"/>
<path transform="translate(0,0)" fill="rgb(72,48,41)" d="M 686.426 598.999 L 687.529 598.987 C 694.697 598.848 698.507 601.977 703.941 606.383 C 721.882 620.927 739.702 635.834 757.53 650.496 C 827.352 706.894 896.063 764.652 963.624 823.737 C 996.34 852.151 1029.36 880.765 1061.02 910.403 C 1064.33 913.608 1067.42 917.338 1069.33 921.572 C 1077.03 938.615 1052.98 947.557 1040.99 952.181 C 1034.73 954.593 1028.44 956.802 1022.21 959.082 C 1003.04 966.003 983.915 973.066 964.847 980.272 C 943.753 987.129 920.473 996.244 899.223 1003.74 C 854.638 1019.65 809.869 1035.05 764.927 1049.93 C 744.424 1056.82 724.217 1064.68 703.469 1070.79 C 677.483 1078.44 674.724 1065.15 673.601 1043.2 C 672.093 1013.72 672.244 984.373 672.094 954.915 L 671.866 806.079 C 671.972 766.971 672.316 727.864 672.899 688.76 C 673.257 663.44 673.71 634.694 677.352 609.481 C 678.149 603.962 682.084 601.794 686.426 598.999 z"/>
<path transform="translate(0,0)" fill="rgb(207,68,69)" d="M 692.155 618.493 C 698.988 622.998 718.429 639.553 725.714 645.452 L 802.904 708.695 C 869.285 762.906 934.464 818.571 998.397 875.648 C 1010.1 886.22 1021.9 896.688 1033.79 907.053 C 1040.47 912.89 1050.77 921.301 1056.35 927.699 C 1043.7 935.037 1027.37 940.306 1013.41 945.372 L 959.261 964.939 C 892.446 989.419 825.34 1013.1 757.959 1035.98 C 740.062 1041.97 722.063 1048.12 704.075 1053.84 C 700.179 1055.08 694.672 1057.13 691.486 1054.53 C 686.777 1041.31 687.929 937.483 687.922 916.921 L 687.939 775.195 C 687.942 726 688.254 667.417 692.155 618.493 z"/>
<path transform="translate(0,0)" fill="rgb(72,48,41)" d="M 1225.5 715.816 C 1228.03 715.81 1228.71 715.685 1231.17 716.277 C 1232.68 716.642 1233.44 717.555 1234.04 719.009 C 1240.6 734.816 1251.91 836.147 1249.01 846.352 C 1244.19 847.029 1244.32 847.269 1241.44 845.193 C 1240.07 840.541 1238.67 821.079 1238.15 815.385 C 1236.74 798.687 1234.91 782.026 1232.69 765.416 C 1231.15 754.081 1224.33 723.684 1225.5 715.816 z"/>
<path transform="translate(0,0)" fill="rgb(72,48,41)" d="M 1115.51 612.548 C 1123.92 612.41 1134.4 618.487 1141.98 622.572 C 1168.31 636.764 1199.7 649.925 1218.85 673.599 C 1220.54 675.685 1219.31 678.323 1218.72 680.552 C 1211.95 682.072 1200.54 668.78 1193.91 663.83 C 1180.92 654.282 1167.08 645.966 1152.54 638.992 C 1145.79 635.681 1120.67 624.306 1116.35 620.594 C 1114.42 616.314 1114.98 617.778 1115.51 612.548 z"/>
<path transform="translate(0,0)" fill="rgb(221,207,168)" d="M 491.261 366.407 C 492.503 366.206 493.846 366.17 495.106 366.082 C 618.223 357.436 904.223 454.275 1023.79 502.362 C 1063.5 518.331 1103.25 535.796 1140.97 556.058 C 1163.12 567.959 1185.2 581.71 1204.23 598.174 C 1172.46 582.292 1141.47 566.747 1108.54 553.194 C 992.214 505.304 629.607 384.162 523.544 429.351 C 498.906 439.848 484.281 461.667 474.848 485.894 C 429.952 601.198 423.083 965.917 473.366 1078.94 C 479.763 1093.32 488.193 1106.47 499.134 1117.81 C 537.267 1157.34 605.343 1182.83 656.023 1202.5 C 663.064 1205.3 670.152 1207.98 677.283 1210.55 C 726.244 1228.01 775.831 1243.66 825.944 1257.48 C 901.645 1279.52 978.334 1298.02 1055.76 1312.91 C 1100.42 1321.48 1143.9 1328.64 1189.48 1330.21 C 1213.26 1331.02 1230.09 1331.24 1251.86 1321.08 C 1236.57 1370.99 1213.39 1389.05 1160.52 1393.84 C 1088.41 1400.38 1013.82 1380.97 944 1365.13 C 814.783 1335.8 687.643 1297.97 563.406 1251.9 C 518.761 1235.6 451.328 1213.23 415.375 1183.31 C 403.356 1173.32 393.881 1161.83 387.069 1147.71 C 366.231 1104.5 356.487 1005.1 351.888 955.006 C 340.615 832.251 342.869 491.15 421.181 398.542 C 439.304 377.111 464.07 368.846 491.261 366.407 z"/>
<path transform="translate(0,0)" fill="rgb(72,48,41)" d="M 405.302 1246.19 C 422.402 1248 467.478 1267.02 486.738 1273.87 C 511.492 1282.67 536.675 1290.29 561.404 1299.16 C 569.333 1302.01 580.009 1305.94 583.581 1314.05 C 585.265 1317.86 586.076 1321.98 586.497 1326.11 C 587.632 1337.28 587.774 1395.42 584.77 1402.75 C 581.932 1409.68 576.672 1412.92 569.995 1415.62 C 544.447 1414.39 434.162 1373.54 404.93 1360.5 C 398.289 1356.52 389.153 1350.48 388.191 1341.89 C 385.451 1317.43 387.374 1290.75 387.345 1266.1 C 387.332 1254.97 395.337 1248.66 405.302 1246.19 z"/>
<path transform="translate(0,0)" fill="rgb(221,207,168)" d="M 523.316 1303.43 C 527.033 1303.97 537.392 1307.67 541.425 1309.01 C 541.027 1336.4 541.234 1364.23 541.218 1391.66 C 535.901 1390.32 528.388 1387.64 522.996 1385.89 C 522.916 1358.4 523.023 1330.92 523.316 1303.43 z"/>
<path transform="translate(0,0)" fill="rgb(221,207,168)" d="M 491.557 1292.3 C 497.317 1294.05 504.071 1296.63 509.833 1298.68 L 509.183 1380.7 C 503.819 1380.09 497.224 1377.55 491.96 1375.81 C 491.105 1349.33 491.706 1319.04 491.557 1292.3 z"/>
<path transform="translate(0,0)" fill="rgb(221,207,168)" d="M 460.591 1281.27 C 466.182 1283.29 471.742 1284.99 477.415 1286.76 C 477.898 1314.94 478.083 1343.12 477.971 1371.3 L 461.069 1364.99 C 460.548 1337.31 460.71 1309 460.591 1281.27 z"/>
<path transform="translate(0,0)" fill="rgb(221,207,168)" d="M 429.73 1270.76 L 446.069 1276.41 C 446.468 1304.2 446.708 1332 446.787 1359.8 L 429.885 1353.52 C 429.378 1327.67 428.94 1296.32 429.73 1270.76 z"/>
<path transform="translate(0,0)" fill="rgb(221,207,168)" d="M 555.974 1314.27 C 560.642 1315.23 565.893 1316.4 569.443 1319.58 C 572.284 1326.77 572.023 1388.16 570.612 1397.33 C 566.402 1399.51 562.834 1399.4 558.406 1397.9 C 557.732 1397.22 557.058 1396.54 556.384 1395.86 C 555.45 1378.73 555.941 1328.03 555.974 1314.27 z"/>
<path transform="translate(0,0)" fill="rgb(221,207,168)" d="M 402.266 1263.03 C 406.326 1262.96 409.593 1262.45 413.092 1264.34 C 415.314 1268.98 415.013 1339.12 414.872 1348.92 C 411.36 1347.4 408.761 1345.74 406.218 1342.82 C 399.022 1334.56 401.469 1276.29 402.266 1263.03 z"/>
<path transform="translate(0,0)" fill="rgb(72,48,41)" d="M 1077.48 1465.21 C 1104 1464.16 1125.06 1490.75 1113.07 1515.79 C 1107.39 1527.66 1087.81 1540.88 1075.22 1545.08 C 1066.39 1545.6 1062.3 1545.61 1053.84 1541.43 C 1045.06 1537.08 1038.46 1529.3 1035.62 1519.92 C 1027.29 1493 1055.04 1472.06 1077.48 1465.21 z"/>
<path transform="translate(0,0)" fill="rgb(221,207,168)" d="M 1053.01 1499.96 C 1069.36 1502.12 1083.52 1512.3 1070.8 1528.7 C 1069.39 1528.88 1067.97 1529.02 1066.55 1529.12 C 1051.28 1530.07 1041.78 1511.76 1053.01 1499.96 z"/>
<path transform="translate(0,0)" fill="rgb(190,170,125)" d="M 1080.9 1480.98 C 1100.72 1481.53 1111.25 1505.74 1092.62 1517.47 C 1091.74 1498.75 1085.13 1492.47 1068.66 1485.83 C 1072.93 1483.85 1076.51 1482.56 1080.9 1480.98 z"/>
<path transform="translate(0,0)" fill="rgb(72,48,41)" d="M 1181.75 1497.06 C 1189.52 1496.86 1194.5 1497.67 1201.61 1501.16 C 1210.36 1505.38 1216.91 1513.12 1219.6 1522.46 C 1227.3 1548.58 1202.27 1570.24 1179.35 1575.96 C 1173.11 1576.11 1170.05 1575.49 1164.14 1573.41 C 1145.08 1566.69 1134.1 1543.74 1142.79 1525.03 C 1149.27 1511.09 1167.62 1501.76 1181.75 1497.06 z"/>
<path transform="translate(0,0)" fill="rgb(190,170,125)" d="M 1161.59 1530.09 C 1176.46 1531.17 1191.33 1546.58 1176.34 1559.11 C 1157.8 1559.39 1145.33 1540.12 1161.59 1530.09 z"/>
<path transform="translate(0,0)" fill="rgb(190,170,125)" d="M 1183.27 1510.93 C 1198.96 1512.52 1203.75 1519.39 1207.2 1533.94 C 1206.83 1535.45 1206.4 1536.95 1205.9 1538.42 C 1204.24 1543.46 1203.3 1546.25 1198.51 1548.68 C 1197.11 1533.63 1191.32 1525.08 1177.26 1519.12 C 1175.41 1518.34 1175.58 1518.33 1174.29 1516.69 C 1176.13 1514.01 1180.18 1512.47 1183.27 1510.93 z"/>
<path transform="translate(0,0)" fill="rgb(72,48,41)" d="M 927.419 1464.83 C 946.996 1470.78 966.679 1476.28 986.32 1482.01 C 992.605 1483.85 999.661 1484.72 1001.34 1491.58 C 1000.49 1495.24 1000.11 1495.17 997.345 1497.62 C 984.006 1493.3 928.149 1480.79 923.516 1471.67 C 924.056 1468.06 924.976 1467.51 927.419 1464.83 z"/>
<path transform="translate(0,0)" fill="rgb(221,207,168)" d="M 1777 254.785 C 1798.26 261.74 1832.92 293.414 1841.56 314.383 C 1858.99 356.68 1863.56 411.13 1867.69 456.623 C 1886.12 659.809 1883.49 864.854 1871.88 1068.36 C 1866.14 1132.91 1869.76 1198.48 1849.42 1260.73 C 1830.64 1318.19 1803.13 1327.64 1754.82 1354.22 L 1661.36 1405.62 L 1426.12 1534.4 C 1390.83 1553.4 1350.18 1576.46 1314.4 1593.79 C 1311.87 1595.24 1311.89 1595.16 1309.01 1595.82 C 1308.37 1594.06 1317.99 1566.18 1319.32 1560.31 C 1356.68 1394.8 1354.18 1220.42 1356.04 1051.57 C 1356.8 982.89 1357.17 913.501 1354.13 845.101 C 1350.55 764.285 1352.92 674.306 1321.81 598.748 C 1307.88 566.678 1284.69 541.982 1259.93 518.743 C 1274.5 510.047 1302.06 497.347 1318.07 489.219 C 1360.17 468.208 1402.14 446.924 1443.97 425.368 L 1777 254.785 z"/>
<path transform="translate(0,0)" fill="rgb(72,48,41)" d="M 1783.85 889.766 C 1787.22 890.005 1786.98 889.947 1789.67 892.005 C 1792.04 896.575 1792.4 1104.08 1792.56 1130.14 L 1792.73 1203.91 C 1792.73 1214.73 1793.38 1234.52 1791.75 1244.21 C 1786.81 1248.83 1779.13 1253.45 1773.23 1256.82 C 1686.21 1306.44 1599.09 1355.54 1509.4 1400.25 C 1498.73 1405.56 1488.31 1411.11 1477.35 1415.77 C 1468.85 1415.74 1468.02 1408.16 1467.94 1401.28 C 1467.8 1388.83 1468.64 1376.27 1468.58 1363.81 L 1467.96 1216.6 L 1467.76 1126.26 C 1467.72 1114.57 1466.24 1077.18 1468.99 1068.43 C 1474.96 1061.63 1510.06 1044.96 1520.15 1039.55 C 1533.15 1032.43 1546.11 1025.22 1559.02 1017.92 C 1618.1 985.174 1677.17 953.17 1735.05 918.228 C 1750.65 908.813 1767.78 898.096 1783.85 889.766 z"/>
<path transform="translate(0,0)" fill="rgb(221,207,168)" d="M 1773.77 914.836 L 1775.42 915.389 C 1776.49 920.28 1776.21 935.837 1776.3 941.526 C 1776.81 965.621 1777.03 989.72 1776.97 1013.82 C 1777.74 1087.46 1778.03 1161.11 1777.84 1234.76 C 1749.11 1252.95 1714.48 1271.68 1684.54 1288.5 C 1619.86 1325.09 1554.1 1359.72 1487.33 1392.35 C 1486.29 1392.64 1486.93 1392.59 1485.42 1391.98 C 1484.52 1386.22 1485.2 1369.97 1485.18 1362.95 L 1485.11 1290.36 L 1484.76 1161.75 C 1484.6 1134.55 1483.87 1105.06 1484.72 1078.05 C 1492.11 1072.61 1510.88 1062.84 1519.32 1058.22 L 1586.82 1021.42 C 1649.74 986.966 1712.07 951.432 1773.77 914.836 z"/>
<path transform="translate(0,0)" fill="rgb(72,48,41)" d="M 1742.86 1174.87 C 1747.68 1179.11 1746.11 1206.71 1746.05 1214.39 C 1735.43 1222.58 1717.69 1231.09 1705.54 1237.93 L 1612.66 1289.46 C 1594.94 1299.44 1577.29 1309.52 1559.69 1319.71 C 1550.24 1325.14 1538.29 1332.58 1528.47 1336.7 C 1527.39 1335.95 1526.09 1334.88 1525.03 1334.06 C 1522.31 1326.97 1524.06 1306.66 1524.48 1298.24 C 1529.33 1294.81 1542.55 1288.02 1548.62 1284.67 L 1596.92 1257.71 C 1645.1 1230.54 1694.59 1201.57 1742.86 1174.87 z"/>
<path transform="translate(0,0)" fill="rgb(231,82,75)" d="M 1731.55 1196.89 C 1735.59 1201.84 1733.37 1206.96 1728.15 1209.84 C 1664.92 1244.65 1602.46 1280.98 1539.49 1316.2 L 1538.46 1315.14 C 1537.85 1312.33 1537.47 1311.67 1538 1308.84 C 1544.9 1300.1 1707.01 1211.23 1731.55 1196.89 z"/>
<path transform="translate(0,0)" fill="rgb(72,48,41)" d="M 1740.05 965.659 L 1742.49 966.923 C 1746.29 971.581 1744.42 997.327 1744.22 1005.14 C 1733.64 1012.76 1715.62 1022.22 1703.78 1028.78 L 1638.23 1065.03 L 1568.38 1103.6 C 1555.57 1110.82 1540.83 1120.11 1527.9 1126.28 L 1524.93 1124.49 C 1521.47 1119.28 1522.98 1096.66 1523.09 1088.76 C 1545.33 1075.16 1573.74 1060.32 1596.96 1047.25 C 1644.83 1020.36 1692.53 993.164 1740.05 965.659 z"/>
<path transform="translate(0,0)" fill="rgb(231,82,75)" d="M 1728.9 987.833 L 1730.41 989.548 C 1730.86 991.644 1731.64 993.951 1730.95 996.054 C 1729.19 1001.5 1556.76 1095.2 1537.88 1106.1 C 1535.63 1105.06 1535.89 1103.29 1535.68 1101.21 C 1537.97 1094.37 1596.06 1063.64 1605.65 1058.21 L 1728.9 987.833 z"/>
<path transform="translate(0,0)" fill="rgb(72,48,41)" d="M 1740.05 1037.8 C 1742.65 1038.17 1741.66 1037.84 1743.88 1039.59 C 1746.34 1046.2 1744.68 1068.22 1744.33 1076.27 C 1736.12 1082.26 1721.01 1089.88 1711.58 1095.11 C 1688.11 1108.2 1664.51 1121.05 1640.79 1133.66 C 1604.13 1153.51 1565.4 1177.36 1528.34 1195.87 C 1526.28 1194.79 1526.61 1194.81 1524.87 1193.13 C 1521.94 1185.57 1523.54 1167.61 1523.92 1158.8 C 1530.8 1153.08 1546.09 1145.51 1554.4 1141.03 L 1595.24 1118.59 C 1643.34 1092.01 1691.88 1063.74 1740.05 1037.8 z"/>
<path transform="translate(0,0)" fill="rgb(231,82,75)" d="M 1729.36 1058.93 L 1730.72 1059.58 C 1731.44 1063.16 1731.8 1068 1728.1 1070.27 C 1721.55 1074.28 1714.67 1077.89 1707.97 1081.65 L 1668.2 1103.92 C 1625.19 1128.19 1582.01 1152.14 1538.65 1175.77 C 1537.55 1175.44 1538.29 1175.75 1536.87 1174.15 C 1536.53 1172.03 1536.16 1170.66 1536.92 1168.58 C 1537.58 1166.7 1538.82 1165.08 1540.45 1163.95 C 1551.54 1156.14 1593.76 1134.38 1607.03 1127.21 C 1648.1 1104.97 1688.87 1082.21 1729.36 1058.93 z"/>
<path transform="translate(0,0)" fill="rgb(72,48,41)" d="M 1740.84 1106.78 C 1743.33 1107.31 1742.15 1106.84 1744.17 1108.86 C 1745.71 1115.62 1745.11 1136.73 1745.05 1144.96 C 1722.09 1159.25 1695.21 1173.26 1671.48 1186.5 L 1528.89 1266.27 C 1527.2 1265.23 1526.63 1264.67 1525.1 1263.4 C 1522.44 1256.49 1523.99 1237.87 1524.35 1229.71 C 1531.91 1224.65 1541.28 1219.46 1549.25 1214.92 C 1612.79 1178.66 1676.64 1141.84 1740.84 1106.78 z"/>
<path transform="translate(0,0)" fill="rgb(231,82,75)" d="M 1730.62 1127.94 C 1732.82 1132.62 1733.18 1136.62 1728.45 1139.45 C 1707.95 1151.73 1686.79 1162.87 1665.95 1174.58 L 1538.36 1246.47 L 1537.17 1244.49 C 1537.07 1242.8 1536.57 1239.56 1537.34 1238.05 C 1540.72 1231.5 1710.7 1139.34 1730.62 1127.94 z"/>
<path transform="translate(0,0)" fill="rgb(72,48,41)" d="M 1822.96 338.979 C 1826.04 340.649 1827.75 341.64 1828.7 344.993 C 1825.9 351.166 1813.55 354.452 1807.67 357.981 C 1762.9 384.856 1715.44 407.026 1669.16 431.149 C 1559.76 488.838 1449.78 545.416 1339.23 600.872 C 1336.4 601.758 1334.61 602.001 1332.48 599.945 C 1332.28 593.877 1341.12 588.41 1345.92 585.873 C 1377.72 569.07 1410.08 553.334 1442.11 536.988 L 1611.94 448.592 C 1659.18 423.74 1706.58 399.171 1754.12 374.885 C 1772.8 365.183 1805.13 346.251 1822.96 338.979 z"/>
<path transform="translate(0,0)" fill="rgb(221,207,168)" d="M 1176.2 80.4544 C 1222.89 79.9573 1272.27 90.4686 1317.65 100.849 C 1370.75 112.903 1423.38 126.897 1475.45 142.803 C 1554.48 166.178 1658.94 198.6 1733.32 233.507 L 1386.85 409.907 L 1284.95 461.716 C 1268.34 470.093 1237.36 484.676 1222.98 494.285 C 1185.45 473.282 1127.47 451.69 1086.91 436.954 C 979.354 397.997 865.093 364.644 755.118 333.325 C 700.055 317.461 644.596 303.008 588.794 289.98 C 548.493 280.566 508.66 271.054 467.288 267.567 C 592.318 223.318 739.076 182.73 866.893 147.736 C 915.057 134.563 963.378 121.968 1011.84 109.954 C 1061.94 97.5121 1124.97 82.2362 1176.2 80.4544 z"/>
<path transform="translate(0,0)" fill="rgb(253,252,251)" d="M 1852.32 1295.07 C 1866.71 1299.37 1888.35 1313.55 1899.4 1323.63 C 1882.55 1335.08 1853.26 1350.11 1834.64 1360.29 C 1799.25 1379.44 1764 1398.84 1728.89 1418.49 L 1397.42 1602.95 C 1371.64 1617.32 1345.68 1631.37 1319.55 1645.12 C 1310.37 1650.02 1278.86 1665.91 1272.04 1671.79 C 1195.05 1738.23 1125.06 1813.91 1048.75 1881.06 C 988.527 1862.76 928.595 1843.53 868.973 1823.36 C 814.265 1805.86 759.681 1787.98 705.222 1769.73 L 218.377 1609.84 C 211.184 1607.87 151.128 1589.28 149.089 1585.82 C 149.23 1585.35 149.353 1584.88 149.512 1584.42 C 154.488 1570.09 265.073 1474.58 285.03 1458.1 C 299.458 1445.94 314.433 1434.45 329.908 1423.66 C 351.431 1408.93 361.635 1404.96 385.014 1394.93 C 387.022 1396.41 389.092 1397.8 391.218 1399.1 C 409.997 1410.65 433.897 1419.13 454.705 1427.21 C 494.987 1442.67 535.558 1457.37 576.396 1471.3 C 672.562 1505.89 769.412 1538.54 866.888 1569.24 C 948.918 1595.03 1034.81 1620.22 1119.25 1635.65 C 1157.2 1642.59 1215.47 1649.24 1252.51 1639.23 C 1287.61 1629.75 1336.75 1600.27 1370.11 1582.72 C 1457.11 1536.46 1543.76 1489.55 1630.06 1442 L 1759.81 1370.63 C 1780.14 1359.18 1802.04 1346.99 1821.63 1334.37 C 1834.69 1325.96 1844.32 1308.38 1852.32 1295.07 z"/>
<path transform="translate(0,0)" fill="rgb(72,48,41)" d="M 424.146 1490.88 C 433.569 1492.3 460.446 1501.84 471.562 1505.4 C 509.918 1517.77 548.212 1530.33 586.442 1543.08 C 714.963 1585.36 843.719 1627.48 971.868 1670.89 C 978.305 1673.07 1002.64 1681.6 1007.3 1685.88 C 1012.81 1690.96 1009.45 1706.03 1008.13 1713.19 C 1001.22 1720.99 980.948 1737.4 972.241 1744.69 C 954.856 1759.22 936.341 1775.79 918.551 1789.59 C 915.156 1792.23 911.274 1794.17 907.496 1796.25 C 893.114 1793.72 868.442 1784.19 853.377 1779.39 C 810.591 1765.83 767.928 1751.87 725.394 1737.54 C 632.366 1707.29 539.632 1676.14 447.206 1644.1 C 422.365 1635.24 397.202 1627.18 372.502 1617.91 C 363.793 1614.18 354.227 1611.17 347.966 1603.66 C 342.914 1598.09 340.608 1591.49 338.866 1584.33 C 334.76 1567.46 352.842 1555.6 364.162 1544.49 C 382.97 1526.02 403.393 1507.53 424.146 1490.88 z"/>
<path transform="translate(0,0)" fill="rgb(221,207,168)" d="M 356.498 1574.3 C 382.397 1585.15 417.664 1594.6 445.405 1604.11 C 516.368 1628.94 587.584 1653.03 659.04 1676.4 L 788.855 1720.17 C 803.83 1725.23 835.461 1737.39 849.546 1740.39 C 860.773 1729.62 874.551 1714.03 886.458 1702.21 C 899.058 1705.14 928.773 1715.87 942.678 1720.45 C 939.832 1722.56 936.467 1724.77 933.518 1726.82 C 921.517 1734.9 880.148 1760.66 872.427 1768.83 L 871.022 1768.43 C 840.424 1759.77 800.034 1744.85 768.378 1734.55 C 687.277 1708.26 606.432 1681.19 525.855 1653.33 C 475.844 1635.84 424.671 1620.21 375.051 1601.55 C 362.93 1596.99 352.221 1588.68 356.498 1574.3 z"/>
<path transform="translate(0,0)" fill="rgb(221,207,168)" d="M 432.638 1545.22 C 451.731 1551.28 486.214 1564.32 505.003 1571.68 C 500.581 1577.34 481.828 1596.74 475.732 1598.47 C 451.292 1590.64 426.941 1582.54 402.684 1574.16 C 411.426 1564.31 422.884 1554.05 432.638 1545.22 z"/>
<path transform="translate(0,0)" fill="rgb(221,207,168)" d="M 739.766 1651.71 C 758.985 1657.13 781.245 1665.28 800.408 1671.75 C 791.912 1680.27 782.644 1688.93 773.951 1697.33 C 769.357 1699.35 722.513 1682.48 714.099 1679.68 C 720.144 1670.91 731.945 1658.88 739.766 1651.71 z"/>
<path transform="translate(0,0)" fill="rgb(221,207,168)" d="M 663.044 1626.08 C 683.11 1632.18 704.923 1639.83 724.964 1646.46 C 716.068 1655.17 707.717 1664.51 699.304 1673.7 C 679.465 1667.48 657.25 1660.18 637.745 1653.17 C 646.667 1644.01 654.615 1635.69 663.044 1626.08 z"/>
<path transform="translate(0,0)" fill="rgb(221,207,168)" d="M 519.822 1577.67 C 536.55 1581.86 561.763 1591.49 578.507 1597.46 C 571.134 1606.22 560.53 1616.69 552.388 1624.79 C 535.947 1620.37 508.591 1610.25 492.461 1604.03 C 500.253 1595.79 510.98 1586.84 519.822 1577.67 z"/>
<path transform="translate(0,0)" fill="rgb(221,207,168)" d="M 815.608 1677.13 C 832.345 1681.92 854.264 1690.35 870.823 1696.56 C 866.864 1701.87 849.442 1721.37 844.372 1724.01 C 825.238 1716.91 805.973 1710.16 786.588 1703.78 C 796.497 1695.66 806.268 1685.99 815.608 1677.13 z"/>
<path transform="translate(0,0)" fill="rgb(221,207,168)" d="M 595.363 1601.9 C 606.038 1606.62 636.765 1616.35 648.748 1620.61 C 639.74 1629.69 630.914 1639.88 622.334 1649.44 C 611.075 1646.32 580.845 1634.11 569.037 1629.54 C 576.44 1620.48 586.99 1610.36 595.363 1601.9 z"/>
<path transform="translate(0,0)" fill="rgb(221,207,168)" d="M 849.584 1646.66 C 857.142 1647.93 899.173 1662.91 909.268 1666.36 C 902.815 1672.49 896.2 1678.44 889.428 1684.22 C 889.054 1684.52 887.525 1685.25 887.028 1685.5 C 874.592 1682.6 844.958 1671.25 831.683 1666.59 C 836.94 1660.06 843.845 1652.91 849.584 1646.66 z"/>
<path transform="translate(0,0)" fill="rgb(221,207,168)" d="M 923.662 1672.02 C 942.62 1677.23 964.62 1685.34 983.324 1691.96 C 975.66 1697.43 967.896 1702.76 960.034 1707.94 C 958.21 1709.07 956.563 1710.07 954.295 1709.37 C 936.928 1704.03 920.39 1696.68 903.073 1691 C 909.222 1685.01 916.952 1677.03 923.662 1672.02 z"/>
<path transform="translate(0,0)" fill="rgb(221,207,168)" d="M 775.845 1621.73 C 794.356 1626.78 815.746 1634.9 834.014 1641.5 C 828.204 1647.88 820.724 1654.81 814.46 1660.9 C 796.155 1655.2 774.092 1646.9 756.036 1640.36 C 763.518 1633.93 768.923 1628.7 775.845 1621.73 z"/>
<path transform="translate(0,0)" fill="rgb(221,207,168)" d="M 625.4 1572.76 C 645.483 1578.37 666.856 1586.15 686.758 1592.85 L 668.645 1610.78 C 665.452 1611.87 615.463 1593.81 607.861 1591.54 C 613.714 1585.61 619.706 1578.9 625.4 1572.76 z"/>
<path transform="translate(0,0)" fill="rgb(221,207,168)" d="M 700.726 1597.65 C 720.39 1604.27 740.148 1610.6 759.996 1616.65 C 754.44 1622.69 747.219 1629.48 741.301 1635.34 C 736.932 1635.67 690.038 1619.17 682.32 1616.56 C 688.571 1610.48 694.676 1603.96 700.726 1597.65 z"/>
<path transform="translate(0,0)" fill="rgb(221,207,168)" d="M 557.562 1549.74 C 563.33 1549.93 602.858 1565.27 610.824 1568.27 C 605.042 1574.5 598.763 1580.8 592.83 1586.93 C 584.288 1584.97 550.401 1571.39 540.616 1567.68 C 545.312 1562.07 552.373 1555.14 557.562 1549.74 z"/>
<path transform="translate(0,0)" fill="rgb(221,207,168)" d="M 992.563 1703.9 L 993.406 1704.54 L 993.497 1706.42 C 987.923 1714.47 917.772 1771.38 906.497 1779.75 L 892.225 1775.71 C 890.871 1775.27 890.011 1774.85 888.712 1774.27 C 889.609 1772.61 982.578 1708.68 992.563 1703.9 z"/>
<path transform="translate(0,0)" fill="rgb(221,207,168)" d="M 491.843 1528.58 L 542.408 1544.99 C 538.022 1550.4 531.515 1556.83 526.567 1561.99 C 521.809 1561.93 483.274 1547.73 476.272 1545.16 C 481.825 1539.9 486.74 1534.27 491.843 1528.58 z"/>
<path transform="translate(0,0)" fill="rgb(221,207,168)" d="M 429.679 1508.05 C 446.069 1513.16 461.375 1518.55 477.538 1524.27 C 470.94 1529.9 467.464 1533.98 462.164 1540.71 C 445.702 1535.56 429.454 1528.49 413.515 1521.81 C 418.53 1517.26 424.45 1512.47 429.679 1508.05 z"/>
<path transform="translate(0,0)" fill="rgb(221,207,168)" d="M 400.017 1529.96 C 404.861 1533.31 411.586 1536.36 417.007 1539.04 C 407.301 1549.85 396.305 1559.27 385.248 1568.64 C 377.77 1566.43 374.492 1565.74 367.607 1561.93 C 376.445 1551.32 389.754 1539.3 400.017 1529.96 z"/>
<path transform="translate(0,0)" fill="rgb(72,48,41)" d="M 1080.08 1698.09 C 1087.78 1698.16 1088.88 1698.87 1095.68 1702.02 C 1131.62 1718.72 1128.79 1723.79 1101.69 1751.41 C 1078.83 1774.71 1051.33 1803.8 1026.45 1826 C 1024.05 1828.14 1020.71 1828.74 1017.54 1829.23 C 1010.03 1827.05 979.765 1814.57 974.991 1807.92 C 973.484 1805.82 973.497 1804.8 974.179 1802.49 C 975.04 1799.57 979.479 1793.13 981.48 1791.24 C 999.297 1774.47 1063.54 1707.32 1080.08 1698.09 z"/>
<path transform="translate(0,0)" fill="rgb(207,68,69)" d="M 1083.56 1711.68 C 1092.16 1715.82 1099.65 1719.29 1107.76 1724.41 C 1101.32 1733.5 1084.38 1749.54 1075.79 1758.36 C 1058.85 1775.75 1041.31 1793.21 1024.09 1810.35 C 1021.52 1812.91 1019.96 1814.48 1016.76 1814.4 C 1008.22 1811.32 997.391 1806.36 989.433 1802.11 C 1002.31 1788.41 1018 1774.73 1031.69 1761.65 C 1049.05 1745.05 1066.29 1728.38 1083.56 1711.68 z"/>
<path transform="translate(0,0)" fill="rgb(72,48,41)" d="M 349.589 1465.85 C 357.464 1465.91 373.837 1471.09 379.253 1477.45 C 386.124 1485.52 385.433 1489.81 384.899 1499.34 C 377.768 1509.43 302.892 1582.31 293.29 1587.9 C 288.507 1586.45 282.414 1584.35 277.698 1583.11 C 256.834 1577.65 257.161 1570 255.727 1550.89 C 262.999 1542.61 281.716 1525.5 290.688 1517.47 C 307.088 1502.8 331.99 1477.66 349.589 1465.85 z"/>
<path transform="translate(0,0)" fill="rgb(231,82,75)" d="M 271.637 1563.65 C 271.647 1561.59 270.333 1555.71 271.706 1554.38 C 297.817 1529.23 326.164 1503.69 352.705 1479.14 C 357.058 1481.03 361.126 1483.19 365.343 1485.36 C 369.183 1487.92 369.643 1487.27 370.895 1490.72 C 366.628 1502.12 303.507 1561.4 290.856 1573.59 C 284.546 1571.58 274.721 1569.82 271.637 1563.65 z"/>
<path transform="translate(0,0)" fill="rgb(207,68,69)" d="M 365.343 1485.36 C 369.183 1487.92 369.643 1487.27 370.895 1490.72 C 366.628 1502.12 303.507 1561.4 290.856 1573.59 C 284.546 1571.58 274.721 1569.82 271.637 1563.65 C 278.843 1560.61 284.656 1564.74 288.323 1562.8 C 303.352 1554.86 359.862 1495.68 365.343 1485.36 z"/>
<path transform="translate(0,0)" fill="rgb(253,252,251)" d="M 1902.86 1341.02 C 1905.02 1345.06 1903.79 1482.82 1903.76 1496.85 C 1892 1504.84 1876.29 1513.18 1863.63 1520.19 C 1841.14 1532.64 1818.59 1544.97 1795.96 1557.17 L 1619.46 1653.94 C 1434.16 1756.79 1248.03 1858.13 1061.09 1957.95 C 1059.62 1954.27 1060.71 1901.39 1060.77 1892.58 L 1216.79 1745.07 C 1234.86 1728.18 1261.39 1701.33 1279.71 1687.02 C 1290.12 1678.88 1327.47 1659.93 1341 1652.71 C 1375.27 1634.58 1409.35 1616.08 1443.23 1597.23 C 1549.45 1539.33 1655.2 1480.57 1760.45 1420.94 C 1807.39 1394.6 1856.89 1368.59 1902.86 1341.02 z"/>
<path transform="translate(0,0)" fill="rgb(253,252,251)" d="M 144.112 1603.36 C 311.269 1657.12 478.131 1711.8 644.692 1767.38 C 777.967 1812.26 911.711 1855.73 1045.9 1897.78 L 1045.21 1959.88 C 1037.28 1960.66 927.954 1923.46 910.6 1917.89 C 654.647 1835.42 399.128 1751.6 144.053 1666.44 C 143.623 1645.84 144.045 1624.05 144.112 1603.36 z"/>
<path transform="translate(0,0)" fill="rgb(221,207,168)" d="M 1747.18 239.877 C 1749.52 240.436 1762.46 247.18 1765.47 248.693 L 1445.91 412.293 C 1400.93 434.661 1356.14 457.396 1311.53 480.496 C 1299.06 486.837 1259.46 503.992 1251.62 512.52 C 1248.59 509.923 1237.17 502.937 1233.24 500.419 C 1270.61 480.923 1310.83 461.847 1348.82 442.424 L 1597.15 315.655 C 1628.56 299.834 1659.88 283.849 1691.11 267.7 C 1708.66 258.693 1729.36 247.429 1747.18 239.877 z"/>
</svg>