<svg viewBox="131.072 126.976 1785.856 1794.048" style="max-height: 500px" xmlns="http://www.w3.org/2000/svg" width="1785.856" height="1794.048"><defs><linearGradient y2="1059.7" x2="1554.86" y1="1524.5" x1="1701.85" gradientUnits="userSpaceOnUse" id="a"><stop offset="0" class="stop0"/><stop stop-color="#541E24" offset="1" class="stop1"/></linearGradient></defs><path d="M999.507 136.448c4.853-.216 9.733-.196 14.593-.246a887.64 887.64 0 0 1 635.67 260.032 886.83 886.83 0 0 1 259.61 622.406 885.96 885.96 0 0 1-254.26 628.73 897.23 897.23 0 0 1-522.49 257.39c-26.59 3.21-53.58 6.01-80.38 6.22-37.19.16-74.161.32-111.228-3.28a895.5 895.5 0 0 1-521.599-234.9 884.97 884.97 0 0 1-280.264-617.26 889.52 889.52 0 0 1 239.332-639.809 881.34 881.34 0 0 1 621.016-279.283" fill="#7B504F"/><path d="M268.6 1427.78c-21.07-34.82-36.214-72.38-49.896-110.58a862.2 862.2 0 0 1-27.886-494.123 861.17 861.17 0 0 1 391.948-536.416 849.7 849.7 0 0 1 642.814-98.214 856.5 856.5 0 0 1 528 385.69c12.81 21.189 25.53 42.682 36.65 64.81a860.22 860.22 0 0 1 64.23 599.813 853.38 853.38 0 0 1-383.93 518.21 917.5 917.5 0 0 1-179.33 83.71c-146.71 49.15-312.282 57.82-462.669 20.12-33.095-8.29-65.82-17.37-97.863-29.13a865.3 865.3 0 0 1-443.793-368.58c-1.918-3.16-5.263-8.17-5.414-11.82l1.307-1.12c-2.907-.38-4.04-1.19-6.132-3.25-.072-2.7.113-2.72 1.748-4.91l6.081-.83c-2.96.05-6.67.46-9.42-.64-1.593-.63-1.757-2.1-2.431-3.56l-1.693-.86c-1.833-2.53-1.926-5.32-2.321-8.32" fill="#FEFEFE"/><path d="M1233.94 996.187c43.62 2.583 87.11 4.773 130.57 9.553 80.1 8.82 171.17 26.3 249.09 47.67l-1.54.9c-1.55.88-3.06 1.49-4.71 2.14-3.11 1.24-4.3 2.72-6.27 5.39-59.18-15.18-120.35-25.69-180.75-34.71-61.22-9.14-123.37-17.12-185.34-18.48.08 9.6 1.05 20.23-.87 29.64-1.02-13.8-.22-28.23-.18-42.103M937.179 1415.4c9.595-.03 19.099.6 27.912 4.78a38.73 38.73 0 0 1 20.312 22.94 42.54 42.54 0 0 1-3.031 33.36c-14.664 27.69-55.793 41.84-84.196 50.3 1.496 5.15 3.137 10.73 5.585 15.52 3.435 6.72 8.831 12.08 16.232 14.1 24.049 6.59 54.283-13.34 73.9-24.94l8.197 20.74-9.291 6.1c-23.095 13.74-49.204 25.63-76.13 28.95-18.057 2.23-36.791-.67-51.298-12.32-13.791-11.08-20.351-28.1-21.828-45.31-2.395-27.89 6.574-58.38 24.843-79.75 17.833-20.86 41.611-32.53 68.793-34.47" fill="#7B504F"/><path d="M931.255 1435.97c3.497.71 5.778 2.24 7.835 5.13 2.547 3.57 2.816 7.74 1.945 11.94-4.193 20.25-20.549 37.35-37.012 48.65l-6.537 3.42a112 112 0 0 1 5.938-30.07c5.121-14.98 13.048-31.73 27.831-39.07" fill="#FEFEFE"/><path d="M1396.91 1415.38c10.28-1.11 22.37.78 31.56 5.37 9.53 4.76 16.89 12.87 20.07 23.1a40.64 40.64 0 0 1-2.91 30.96c-16 30.44-56.51 42.6-86.86 52.09 2.06 6.49 4.28 12.81 8.81 18.07 5.17 6 12 9.39 19.9 9.92 23.47 1.55 51.01-14.5 67.79-29.57 3.7 7.22 7.82 13.96 12.27 20.75-2.26 2.27-4.97 4.19-7.49 6.17-21.81 15.03-48.27 28.09-74.65 32.22-19.88 3.11-41.84 1.34-58.42-11.06-13.67-10.24-20.74-25.64-22.72-42.24a104.58 104.58 0 0 1 22.67-78.19c18.18-22.66 41.38-34.29 69.98-37.59" fill="#7B504F"/><path d="M1387.47 1437.03c.43-.07.85-.16 1.28-.22 3.27-.38 6.51.07 9.01 2.41 2.25 2.11 2.5 5.63 2.25 8.53-1.73 19.84-17.82 41.44-32.36 54.04-3.14 2.31-6.43 4.45-9.65 6.66.06-4.91.39-9.93 1.09-14.8 3.04-20.89 10.98-43.5 28.38-56.62" fill="#FEFEFE"/><path d="M733.056 428.399c17.106-1.262 38.127-.685 51.647 11.406 7.209 6.447 10.559 15.022 10.931 24.569.411 10.581-2.356 21.971-9.968 29.701-4.041 4.103-11.684 9.01-17.746 8.328-11.394-1.283-4.055-33.181-11.663-42.702-2.507-3.137-5.993-4.434-9.904-4.756-8.377-.69-13.336 1.133-19.667 6.576-14.208 12.218-21.418 35.965-22.57 54.382-2.261 36.168 28.189 15.042 37.64 28.76 1.916 2.78 2.031 6.939 1.52 10.156-5.184 32.6-33.769 12.233-53.226 26.973-15.755 11.936-24.835 33.082-27.323 52.24-1.603 12.347-.611 25.701 7.614 35.685 5.734 6.959 13.648 10.883 22.556 11.63 30.219 2.537 55.179-11.983 77.647-30.548l7.36-5.977c6.162 4.285 11.427 9.418 16.299 15.097-13.931 16.496-30.547 28.189-50.474 36.505-34.242 14.293-77.818 19.192-112.768 4.442-16.557-6.988-30.5-18.804-37.138-35.847-6.734-17.287-5.168-37.799 2.206-54.615 13.93-31.768 43.198-49.574 74.329-61.564-10.638-13.791-20.816-27.519-22.998-45.331a55.32 55.32 0 0 1 12.218-42.322c17.874-21.825 46.491-30.119 73.478-32.788M716.02 1316.43a167.6 167.6 0 0 1 24.043 1.07c24.437 2.99 47.92 11.55 63.43 31.51 13.778 17.73 17.646 39.96 14.697 61.88-3.929 29.21-20.942 56.83-44.354 74.53-22.675 17.15-50.263 22.24-78.044 18.44-7.958 25.03-20.565 51.45-41.195 68.46-14.837 12.23-33.826 19.36-53.178 17.02-9.866-1.19-19.41-5.4-25.452-13.55-5.259-7.09-6.625-15.96-5.373-24.56 2.453-16.87 14.001-30.67 27.391-40.46 3.041-2.22 5.678-4.31 9.539-3.76 2.57 6.35-10.422 32.48-7.136 48.12.76 3.62 2.279 6.31 5.631 8.16 2.926 1.62 8.925 2.14 11.93.67 15.07-7.37 23.905-71.83 27.725-88.42l-23.508 5.33a191 191 0 0 1 4.335-21.83c7.749-2.29 15.805-3.78 23.7-5.5a1191 1191 0 0 0 9.994-42.87l7.117-32.3c19.671-6.5 39.923-12.13 60.499-14.68-6.153 23.38-10.721 47.2-16.125 70.76-3.756 16.38-8.913 33.1-11.376 49.69 1.153 1.04 1.713 1.96 3.32 2.19 7.565 1.1 19.607-6.93 25.335-11.71 19.256-16.08 30.346-48.98 32.608-73.42 1.345-14.53.448-32.86-9.594-44.4-11.023-12.66-28.604-16.39-44.625-17.12-30.903-1.43-70.482 8.21-93.591 29.83-7.771 7.27-14.681 17-14.676 28.06.002 3.01.757 6.16 3.154 8.19 4.843 4.1 12.959 3.27 18.901 3.23-.101 7.01-.584 13.7-1.541 20.64-6.314 8.34-14.809 13.34-25.234 14.86-7.94 1.15-17.325-.05-23.705-5.27-5.757-4.72-7.518-11.87-7.87-19-.915-18.55 7.96-36.18 19.998-49.74 32.848-36.99 85.504-51.42 133.23-54.05m477.83 25.89c3.52-4.34 5.35-10.65 7.45-15.81 3.31-8.13 7.23-17.59 16.09-20.93 12.77-4.81 30.5 5.81 41.8 11.35-.39 1.59-.8 1.79.05 3.37 1.39 2.57 3.23 3.6 5.92 4.45-5.68 9.57-11.35 19.28-15.03 29.83-11.06 31.66-38.62 154.16-31.15 181.87.9 3.37 2.71 7.97 6.22 9.38 8.62 3.46 27.08-8.82 34.52-13.42 1.49-.92 2.9-1.9 4.34-2.91 2.12 5.96 4.45 11.92 6.25 17.98-17.21 15.91-52.51 38.5-76.9 38.09-7.72-.13-14.82-2.84-19.98-8.72-9.1-10.35-9.9-25.57-11.37-38.6-11.47 20.52-26.29 39.99-50.04 46.71-13.35 3.77-28.93 2.74-41.13-4.06-11.3-6.29-18.35-17.18-21.67-29.48-7.29-27.05 1.24-64.26 15.22-87.99 12.58-21.35 34.9-39.74 59.14-45.84 19.03-4.79 36.93-1.45 53.65 8.45 1.3-8.3 13.68-69.07 12.44-71.71 3.44-3.52 3.86-7.29 4.18-12.01" fill="#7B504F"/><path d="M1143.53 1445.13c3.96-.32 7.74-.53 11.55.82 4.48 1.58 8.06 4.69 10.07 9.01 6.27 13.41-.47 34.46-5.45 47.44-6.37 16.61-15.07 30.69-31.84 38.13-3.76.93-7.19 1.88-11 .77-3.72-1.09-6.62-4.14-8.21-7.6-6.3-13.74-.21-38.31 4.71-51.85 5.81-15.95 14.33-29.44 30.17-36.72" fill="#FEFEFE"/><path d="M883.896 527.083c-8.84.39-17.347.613-25.876-2.285-6.421-2.181-11.655-6.078-14.378-12.414-3.102-7.22-2.917-15.087.275-22.232 11.002-24.623 53.893-42.745 78.093-51.217 51.234-17.935 114.57-22.104 164.45 2.335 23.11 11.325 42.87 34.64 51.14 58.936 18.57 54.573-8.97 119.962-50.85 156.086-5.16 4.448-10.72 9.125-16.39 12.868-3.8 2.512-11.28 5.377-14.15 8.486-.51.545-.65 1.333-.98 2-5.26-1.231-11.33-3.201-16.74-2.891-20.19 1.16-66.576 19.477-88.518 25.825-5.298-1.745-10.736-3.033-15.994-4.896-16.284-5.77-32.721-14.106-40.424-30.426 1.001-16.428 6.375-32.729 10.215-48.673a4919 4919 0 0 1 18.72-77.316c3.537-13.97 9.186-30.05 9.092-44.496-.041-6.273-2.571-11.803-5.075-17.403 15.98-5.187 44.784-9.066 61.821-7.915 4.308.291 10.128 1.068 12.873 4.798 1.73 2.354.93 7.491.53 10.238-2.279 15.465-7.218 31.213-10.953 46.42-6.463 26.312-12.655 52.811-19.768 78.95-3.833 14.086-12.657 39.116-13.739 52.588-.115 1.434-.27 3.522.896 4.533 4.226 3.665 14.187 2.662 19.522 2.173 24.162-2.219 44.872-16.896 60.072-35.2 25.1-30.215 39.17-77.298 35.38-116.35-1.94-20.01-9.72-38.364-25.64-51.175-20.56-16.553-48.541-20.598-74.132-17.713-27.843 3.139-62.28 17.364-79.87 40.025-8.754 11.278-11.38 22.419-9.602 36.341M1328.78 423.45c19.39.048 38.12 1.352 56.7 7.327 17.08 5.493 34.24 14.703 42.36 31.57 7.44 15.469 6.27 35.256.47 51.097-7.51 20.481-21.42 30.542-40.56 39.435 17.81 6.279 36.5 13.733 46.56 30.876 8.36 14.244 8.41 31.911 4.34 47.519-6.73 25.782-25.93 48.179-48.87 61.233-35.71 20.326-83.27 22.541-122.3 11.737-17.69-4.897-42.25-14.051-49.74-32.539-2.43-5.998-2.04-12.774-1.24-19.069 1.71-13.459 6.44-27.366 9.66-40.57a6162 6162 0 0 0 17.72-75.791c2.66-11.587 7.52-26.251 6.44-38.157-.58-6.324-4.28-12.017-7.35-17.412 11-3.214 64.55-14.815 72.55-12.598 2.19.607 3.1 1.592 4.22 3.495 6.02 10.173-5.03 47.567-7.95 59.786l-19.76 89.625c-3.55 15.503-8.69 31.426-10.85 47.12-.42 3.047-.99 5.551 1.11 8.145 2.55 3.151 8.06 3.977 11.8 4.323 17.74 1.646 35.79-2.897 49.68-14.285 13.98-11.463 23.11-29.236 24.73-47.205 1.06-11.754-1.03-24.755-9.1-33.816-6.8-7.643-18.97-13.312-29.24-13.64-3.6-.115-9.92.329-12.87-1.689-1.04-2.265-1.58-2.978-.89-5.52 3.15-11.55 22.82-18.263 31.9-24.562 11.92-8.271 19.88-20.123 22.44-34.426 2.27-12.686 1.08-25.823-6.65-36.542-8.29-11.478-21.7-17.736-35.42-19.733-30.78-4.48-70.86 6.406-95.5 25.268-19.1 14.62-23.05 26.812-26.12 49.787-1.24.554-1.31.66-2.86.925-7.92 1.352-23.97-4.739-29.77-9.961-4.42-3.982-6.8-9.482-6.89-15.417-.15-10.145 5.68-19.145 12.36-26.307 32.16-34.436 104.04-48.352 148.89-50.029" fill="#7B504F"/><path d="M1232.92 972.615c26.95.366 53.83 2.962 80.66 5.322 101.26 8.907 205.34 25.163 301.84 57.783 42.92 15.86 137.04 37.31 156.37 81.53 5.3 12.12 5.11 25.73.24 37.96-10.89 27.39-42.35 41.26-67.79 51.66-54.5 22.27-112.47 35.87-168.01 55.4-15.08 5.31-32.14 10.04-46.27 17.51-6.85 3.61-12.08 7.96-16.87 14.04 11.01 11.84 27.14 13.06 41.11 19.66 21.9-15.64 45.45-18.73 71.76-14.46 42.86 6.95 78.41 34.19 103.26 69.01 19.28 27.02 36.63 65.42 31 99.39-4.09 24.72-16.16 46.75-36.86 61.28-23.77 16.68-52.44 18.62-80.29 13.65-41.21-7.35-84.49-31.93-108.61-66.69-18.26-26.31-29.76-63.19-23.65-95.19 3.7-19.42 13.18-35.22 24.74-50.95-15.82-4.52-30.98-8.27-39.81-23.76-3.59-6.28-4.98-12.66-2.84-19.7 3.84-12.61 16.61-21.48 27.88-27.15 27.06-13.61 65.01-24.99 94.28-34.09 36.53-11.36 161.72-42.19 174.22-80.74 2.21-6.8 1.38-13.83-2-20.1-14.3-26.57-75.25-43.13-103.76-50.84l-42.44-11.3c1.97-2.67 3.16-4.15 6.27-5.39 1.65-.65 3.16-1.26 4.71-2.14l1.54-.9c-77.92-21.37-168.99-38.85-249.09-47.67-43.46-4.78-86.95-6.97-130.57-9.553l-.03-1.403c-2.51-5.494-1.18-16.166-.99-22.169" fill="url(#a)"/><path d="M1570.68 1319.33c7.11.8 24.1 25.98 29.58 32.72-5.48 3.33-10.46 5.57-16.79 6.85-8.96-3.83-13.64-13.17-19.61-20.32-3.43-4.11-7.54-7.68-11.08-11.75l.82-2.01c5-3.9 10.99-4.63 17.08-5.49m-6.28-13.91c1.03-.01 2.06-.01 3.09.03 33.72 1.18 67.91 14.93 91.13 39.9l-.43 1.07c-17.2-2.75-35.67-1.23-52.82 1.45-13.21-19.44-20.12-30.43-40.97-42.45m-85.45 110.39c7.99 14.52 15.85 28.53 26.66 41.22 28.35 33.27 77.33 58.03 120.91 61.22 30.62 2.23 56.69-7.42 79.74-27.24-2.81 4.84-6 9.37-9.22 13.95-13.65 16.31-31.22 28.03-52.5 31.21-40.04 5.99-82.35-11-113.85-34.7-27.46-20.67-46.94-51.31-51.74-85.66m-245.04-421.026c10.22-3.406 26.15.014 37.15.344a1468 1468 0 0 1 224.69 26.362c36.84 7.13 73.35 16.45 110.21 23.21 39.73 10.43 133.4 35.09 155.1 71.29a39.95 39.95 0 0 1 4.72 30.52c-3.92 15.67-17.21 28.2-30.82 36.03-23.14 13.31-48.97 22.67-74.24 31.12-40.21 13.44-81.17 24.73-121.44 38.16-17.48 5.83-35.35 10.76-51.74 19.34-7.45 3.89-19.46 11.36-21.99 19.67-.9 2.92-.8 5.53.83 8.19 7.34 12.02 37.97 16.07 39.6 21.23-3.38 2.13-8.25.44-11.84-.38-11.45-2.59-23.2-5.62-30.14-16.1-2.64-3.99-3.71-8.73-2.73-13.43 1.93-9.29 10.74-16.25 18.46-20.97 15.51-9.48 34.73-14.81 51.87-20.78a1907 1907 0 0 1 84.29-27.25c37.16-11.45 79.15-22.51 112.4-43.21 12.64-7.86 26.24-19.01 30.1-34.05 2.25-8.79.6-17.78-4.04-25.52-21.22-35.37-102.23-51.91-140.75-65.15-77.92-21.37-168.99-38.85-249.09-47.67-43.46-4.78-86.95-6.97-130.57-9.553z" fill="#FEFEFE"/><path d="M1546.03 1307.12c7.05-.53 10.14 1.24 15.98 4.75-6.28 2.5-15.71 5.76-18.7 12.3.05 2.37.37 4.07 1.75 6.07 3.47 5.04 8.71 9.25 12.77 13.87 4.74 5.39 8.68 11.54 13.38 17.03-23.18 20.11-45.43 39.23-61.26 66.07-2.13 4.58-4.1 9.26-6.14 13.89-9.02-12.83-18.19-26.87-22.55-42.05-4.6-16-.53-30.89 7.41-44.94 12.7-22.44 32.31-40.17 57.36-46.99" fill="#FEFEFE"/><path d="M1232.92 972.615c26.95.366 53.83 2.962 80.66 5.322 101.26 8.907 205.34 25.163 301.84 57.783-.73 1.36-.82 2.21-2.25 2.88-3.33 1.55-5.11 3.11-7.21 6.1-36.86-6.76-73.37-16.08-110.21-23.21a1468 1468 0 0 0-224.69-26.362c-11-.33-26.93-3.75-37.15-.344-2.51-5.494-1.18-16.166-.99-22.169" fill="#7B504F"/><path d="M1628.01 1353.37c13.62-1.57 28.12.48 41.56 2.65 10.62 9.88 19.12 23.9 25.9 36.6 11.07 20.74 23.03 51.31 15.38 74.92-4.9 15.15-17.53 26.21-31.35 33.26-29.9 15.25-63.32 10.55-93.93.4-30.16-11.92-53.67-27.51-75.13-51.72a79 79 0 0 1 1.41-4c10.09-26.81 28.34-47.53 49.82-66 4.85-4.17 10.55-9.58 16.56-11.98 2.67-1.07 4.59-1.12 7.16.07 1.6 4.01-.35 9.98-.23 14.48 1.37 2.33 1.2 2.2 3.82 2.88l1.75-1.14c2.8-5.41 2.7-11.56 2.6-17.52 11.97-7.9 20.41-11.14 34.68-12.9" fill="#FEFEFE"/><path d="M949.972 702.58c21.942-6.348 68.328-24.665 88.518-25.825 5.41-.31 11.48 1.66 16.74 2.891 14.12 1.962 127.86 24.713 132.53 29.695 10.35 11.026 33.43 161.108 36.29 182.105a1449 1449 0 0 1 8.87 81.169c-.19 6.003-1.52 16.675.99 22.169l.03 1.403c-.04 13.873-.84 28.303.18 42.103-.81 3.9-1.7 6.4-5.22 8.7-3.34 2.19-7.53 3.57-11.23 5.04 24.19 6.77 50.02 13.77 72.99 23.96 5.04 19.56 8.26 41.04 10.73 61.11 11.32-4.77 22.58-9.54 34.2-13.55 20.25 5.35 145.7 44.52 156.31 52.18 4.23 11.11 1.73 32.92 1.35 45.27-14.68 11.71-45.13 22.08-63.53 30.06a9858 9858 0 0 0-109.11 48.7c-18.1 8.11-38.18 15.39-55.45 24.99-2.69-.85-4.53-1.88-5.92-4.45-.85-1.58-.44-1.78-.05-3.37-11.3-5.54-29.03-16.16-41.8-11.35-8.86 3.34-12.78 12.8-16.09 20.93-2.1 5.16-3.93 11.47-7.45 15.81-.32 4.72-.74 8.49-4.18 12.01a4554 4554 0 0 1-119.66 52.62c-23.63-11.06-47.83-20.94-71.714-31.45-17.279-7.6-35.681-17.41-53.751-22.42-12.06 4.9-23.771 10.6-35.535 16.16-31.225-9.49-62.211-24.08-92.344-36.67a9125 9125 0 0 1-163.541-69.15l-82.091-34.3c-14.256-5.94-30.808-11.19-43.824-19.41-4.301-20.78-22.068-103.16-20.392-118.51 8.219-9.75 108.202-49.43 127.627-58.38-18.058-14.21-25.765-23.07-28.474-46.215-2.798-23.906-4.868-49.263-5.079-73.323-36.476 23.852-74.363 42.649-115.868 56.185-20.043 6.537-40.939 11.429-61.578 15.67-33.378 6.858-157.922 24.223-163.938 61.433-.745 4.6 1.719 8.94 4.546 12.35 9.121 11.01 23.687 18.78 35.676 26.3 26.264 16.47 58.037 39.21 55.09 74.43-1.101 13.17-9.011 23.97-19.018 32.04-20.943 16.89-89.393 44.8-93.595 72.46-.668 4.4.715 8.56 3.496 11.97 22.449 27.54 103.759 13.37 138.436 68.14a68 68 0 0 1 10.719 41.82c-.973 14.91-8.293 28.08-19.502 37.72-23.404 20.11-62.799 26.24-92.588 26.35-2.907-.38-4.04-1.19-6.132-3.25-.072-2.7.113-2.72 1.748-4.91l6.081-.83c-2.96.05-6.67.46-9.42-.64-1.593-.63-1.757-2.1-2.431-3.56l-1.693-.86c-1.833-2.53-1.926-5.32-2.321-8.32 28.579-.13 61.93-3.41 86.98-18.29 7.996-4.75 14.663-12.61 16.778-21.79 1.912-8.29-.744-18.29-4.605-25.68-28.307-54.12-119.649-32.54-145.163-76.62-4.99-8.63-6.029-18.84-3.371-28.39 9.753-35.06 60.787-58.3 89.579-75.44 9.209-5.49 19.199-12.4 21.661-23.51 7.721-34.86-70.353-60.63-88.66-90.29-5.109-8.27-7.528-17.46-5.07-27.04 12.952-50.49 106.138-63.686 148.614-73.565a1310 1310 0 0 0 74.762-19.894c48.068-14.484 96.228-32.153 139.978-57.087.173-18.878-2.582-50.42 6.027-66.761 6.986-13.26 27.282-22.322 40.572-27.689 38.32-15.476 79.103-19.794 118.276-31.634 62.175-18.792 122.604-43.383 185.014-61.52" fill="#401719"/><path d="M1323.91 1190.17c7.11-.07 16.27 4.04 22.9 6.52-7.91 2.47-15.6 6.07-23.26 9.24-7.81-2.46-15.33-5.83-22.86-9.02 7.78-1.99 15.48-4.56 23.22-6.74m33.63 10.67c8.34-.15 21.75 6.95 29.77 10.04-7.05 3.24-14.29 6.16-21.43 9.22-3.71.7-25.64-9.29-30.21-11.04 7.46-2.45 14.72-4.96 21.87-8.22m-175.15-4.94c8.06-.18 20.25 6.79 27.79 10.04a557 557 0 0 0-22.86 9.57c-6.19.97-21.11-7.51-27.32-10.26 7.53-2.91 14.95-6.21 22.39-9.35m82.73-34.82c7.95 1.93 14.71 5.35 21.75 9.4a907 907 0 0 1-26.65 12.02l-22.94-11.6c9.11-3.86 18.4-6.89 27.84-9.82m24.04 39.06c6.74 4.24 14.14 6.74 21.55 9.53-7.88 3.48-20.43 6.99-26.56 12.75-8.32-3.17-16.32-6.64-24.26-10.67 9.53-4.52 19.36-8.03 29.27-11.61m90.25-30.71c6.97 1.91 13.76 4.2 20.58 6.57-12.49 6.29-25.89 11.32-38.77 16.79-7.25-1.81-14.43-4.3-21.58-6.48 13.39-5.36 26.74-10.68 39.77-16.88m-278.39 59.45c8.93 2.67 17.63 5.87 26.37 9.07-10.41 4.65-20.78 9.33-31.46 13.37-8.53-3.53-17.77-6.18-26.73-8.32 10.34-5.12 21.25-9.46 31.82-14.12m21.58 39.15c11.68 3.6 22.91 6.14 35.03 7.8l-27.21 12.03-6.33 2.78-25.45-11.67c7.92-3.83 15.86-7.52 23.96-10.94m26.08-57.84c8.76 1.5 16.86 5.65 24.88 9.33-7.33 3.2-25.38 13.77-32.78 11.79-9.29-3.13-18.52-5.68-28.26-6.94a1543 1543 0 0 1 36.16-14.18m195.3-51.02 23.98 6.76-40.3 15.62a221 221 0 0 1-26.56-7.55c14.38-4.77 28.3-10.59 42.88-14.83m-117.14 16.88c7.14.02 17.43 7.15 23.72 10.6-7.61 3.65-24.67 13.46-32.12 13.48a839 839 0 0 0-26.59-9.54c11.54-5.14 23.01-10.49 34.99-14.54m96.89 37.98c7.42-.02 23.23 8.17 30.57 11.1-10.58 4.08-21.19 8.04-31.42 12.96-.61.19-1.19.6-1.82.58-2.05-.08-22.93-10.7-26.98-12.32a510 510 0 0 1 29.65-12.32m-42.38 16.83c5.38-.4 23.62 9.36 29.47 11.93a988 988 0 0 1-30.61 13.58c-9.49-2.04-20.08-8.81-28.9-13.2a1106 1106 0 0 1 30.04-12.31m10.82-54.99c4.78 1.13 12.2 7.12 17.07 9.58-19.94 6.22-38.83 13.39-57.58 22.65-5.26-.39-11.92-4.07-16.82-6.07 18.55-9.71 38.18-17.68 57.33-26.16m121.78 3.24c7.36 3.26 14.4 7.81 21.41 11.78-13 5.63-25.97 11.19-39.22 16.19-6.32-4.93-15-7.46-22.42-10.22 13.18-6.23 26.35-13.27 40.23-17.75m-268.44 112.72c6.31.29 19.45 8.6 26.14 11.43-11.62 5.82-24.18 10.42-36.19 15.41-8.79-1.78-18.27-7.84-26.69-11.4a691 691 0 0 0 36.74-15.44m-119.23-23.94c12.19-.47 34.28 9.51 46.3 13.85a1863 1863 0 0 0-21.19 9.46l-6.58 2.86c-12.42-6.11-24.88-12.69-37.95-17.28a1010 1010 0 0 0 19.42-8.89m197.07-58.97c9.13-1.48 37.63 12.39 47.52 16.31l-24.59 10.42-3.19.67c-13.52-7.57-28.37-13.28-42.82-18.82zm-28.28 60.08c9.06 3.49 17.64 8.34 26.25 12.81-13.2 5.2-26.16 10.93-39.14 16.66-9.12-4.17-18.2-8.37-27.57-11.97 13.83-4.7 27.18-11.44 40.46-17.5m-108.17 15.04a1403 1403 0 0 1 28.9 11.65c-11.45 5.37-23.13 11.39-35.07 15.56l-.83.28c-9.46 3.15-21.65-6.28-30.17-10.59zm102.98-60.98c12.23 2.02 26.8 10.2 38.21 15.14-10.92 3.49-22.19 7.12-32.39 12.41-13.67-4.29-26.84-9.78-40.69-13.59 11.54-4.88 23.03-9.84 34.87-13.96m45.75 23.15c11.48 4.3 22.38 10.04 33.29 15.56l-34.42 14.83c-.66.27-1.53.66-2.21.81-5.04 1.12-25.52-12.46-30.9-15.26 10.28-7.8 21.99-12.23 34.24-15.94m-177.59 1.75c18.27 3.61 39.61 8.71 56.54 16.41-8.8 4.58-17.66 8.54-26.83 12.29-19.31-4.33-37.83-12.37-57.26-16.74 9.32-3.69 18.42-7.8 27.55-11.96m81.26-7.11c18.28 5.35 36.04 11.89 54.08 17.94-5.66 2.76-21.05 12.12-26.66 10.91-19.7-3.85-38.49-10.15-57.8-15.49 9.9-4.96 20.17-9.09 30.38-13.36M726.071 781.287l.495.847c-1.355 1.026-2.699 2.071-3.956 3.217-9.977 9.091-11.208 23.516-11.815 36.176-22.671-1.832-45.414-5.043-68.028-7.598-4.438-.722-8.964-1.081-13.435-1.569 29.277-15.72 64.56-23.524 96.739-31.073" fill="#FEFEFE"/><path d="M1333.09 1132.99c11.72-.67 117.81 36.62 137.55 43.19-7.9 3.36-16 6.36-23.99 9.53-4.26-1.04-9.13-1.89-13.05-3.86-7.3-3.66-13.14-9.05-21.34-10.8-7.95-1.38-16.48-4.95-24.22-7.42-10.78-3.44-21.65-8.38-32.48-11.23-18.13-4.78-41.75 7.77-58.89 13.79-6.64-3.67-13.49-6.88-20.35-10.12 18.93-7.7 37.93-15.13 56.77-23.08m-335.723 142.03.934.45c.083 1.6.121 3.95 1.201 5.27 6.448 7.9 31.818 12.15 36.068 20.44.82 1.6 1.24 2.91 2.69 4.06 6.32 5.04 26.36 13.52 35 18.09 8.76-2.67 17.03-6.51 25.39-10.2 9.17 2.64 18.07 6.86 26.89 10.5-13.1 6.23-26.42 12.05-39.64 18.03-4.89 2.33-9.88 4.49-14.82 6.71-40.1-16.5-79.493-36.52-118.705-55.08 15.416-3.68 30.561-11.83 44.992-18.27m-47.39 26.67c14.137 6.06 27.928 13.36 41.825 19.97l74.518 34.89 1.06 39.3c-13.67-4.65-27.09-11.34-40.32-17.13a2986 2986 0 0 0-77.066-33.03zM603.993 900.002c-.276.233-.549.469-.828.698-32.242 26.517-88.971 50.601-129.167 62.713-20.258 6.105-40.67 10.482-61.394 14.667-34.671 7-157.496 24.78-161.385 67.86-.706 7.83 3.392 14.62 8.467 20.21 24.608 27.13 88.134 45.04 86.422 89.41-.453 11.74-5.075 19.93-13.757 27.61-25.039 22.15-95.768 44.28-99.366 82.65-.582 6.21 1.579 12.02 5.746 16.6 27.86 30.61 98.86 14.39 135.584 62.76 7.849 10.34 12.727 23.18 12.652 36.24-.073 12.81-5.49 24.72-14.626 33.64-20.889 20.39-60.148 25.03-87.876 26.1-2.96.05-6.67.46-9.42-.64-1.593-.63-1.757-2.1-2.431-3.56 30.679-2.05 76.787-4.39 98.622-29.37 7.717-8.83 10.912-19.84 9.65-31.46-1.824-16.79-12.894-31.54-25.989-41.57-11.462-8.79-24.991-14.16-38.752-18.18-25.62-7.49-84.805-12.65-89.181-46.14-1.361-10.42 3.735-19.85 10.15-27.65 17.109-20.81 42.327-34.97 65.539-47.95 8.995-5.03 19.484-9.82 26.858-17.16 7.129-7.1 11.086-16.47 10.162-26.58-1.408-15.4-13.6-28.49-25.233-37.59-19.636-15.38-65.543-35.11-69.218-61.65-1.231-8.9 2.416-17.05 7.877-23.9 10.99-13.77 27.609-22.02 43.686-28.311 29.099-11.382 60.277-16.317 90.621-23.224a1116 1116 0 0 0 111.285-30.867c20.699-7.028 41.454-15.3 61.276-24.523 14.644-6.813 29.066-14.773 44.026-20.833M1075 1356.21c93.74-44.04 189.98-83.85 285.44-124.01l70.23-30.34c17.76-7.68 35.89-16.09 54.6-21.17-.48 12.15-.27 24.4-.32 36.56a11299 11299 0 0 0-138 61.39c-28.92 12.97-57.98 27.47-87.76 38.29-11.3-5.54-29.03-16.16-41.8-11.35-8.86 3.34-12.78 12.8-16.09 20.93-2.1 5.16-3.93 11.47-7.45 15.81-38.1 19.79-79.15 34.81-118.18 52.79-1.09-12.88-.66-25.98-.67-38.9m-38.78-673.251c10.55.715 30.19 6.964 41.69 9.568a2811 2811 0 0 0 87.34 18.403c-12.48 5.805-26.56 9.569-39.64 13.93l-69.28 23.38c-67.338 23.132-134.343 48.198-202.108 69.933-2.154.668-4.442 1.356-6.72 1.162-13.094-1.116-31.807-7.304-45.027-10.446-25.402-6.039-51.096-11.16-76.328-17.857 20.703-15.159 73.547-29.57 99.039-38.184a6269 6269 0 0 1 120.53-40.361c30.156-9.805 60.634-18.893 90.504-29.528" fill="#FEFEFE"/><path d="M1282.9 1085.03c4.17 3.7 9.01 46.12 10.26 54.56a3495 3495 0 0 0-144.72 60.23c-15.62 6.73-31.58 12.63-47.19 19.37a6186 6186 0 0 0-109.54 48.94c-11.515 5.17-39.971 14.55-47.838 21.92-3.96 3.71-1.867 46.29-1.774 54.77-7.123 3.08-19.845 10.52-27.389 10.53l-1.176-2.33c-3.046-36.06-11.66-71.72-15.773-107.7 32.998-14.87 66.759-28.03 100.171-41.94l173.899-72.29 72.5-29.75c12.82-5.23 26.41-9.66 38.57-16.31" fill="#FEFEFE"/><path d="M1233.12 1122.01c1.1-.05 2.77-.24 3.89.02 2.52.58 3.64 1.84 5.12 3.83.94 3.2.77 5.05-.62 8.11-1.11 2.44-2.12 3.47-4.46 4.76-10.69 5.84-23.71 9.78-35.06 14.34l-73.57 29.59c-2.84.46-4.16.25-6.83-.79-1.25-1.17-2.24-2.08-2.71-3.81-.61-2.26-.12-4.77.9-6.83 1.23-2.47 3.19-4.63 5.61-5.94 12.29-6.62 27.23-11.22 40.28-16.53 22.19-9.04 44.63-19.67 67.45-26.75" fill="#401719"/><path d="M619.181 820.143c31.209 2.443 62.693 6.265 93.763 10.152 3.627 15.231 5.675 31.216 8.358 46.665l15.262 87.899c2.77 15.902 20.504 106.451 19.486 115.201-3.001.6-5.352-.98-8.158-2.08-29.909-12.33-101.38-41.71-121.927-63.36-4.102-4.32-7.513-9.03-9.294-14.769-7.11-22.922-9.588-120.536-8.701-149.208.381-12.295 1.925-21.709 11.211-30.5M515.273 1102.23c123.589 50.32 249.782 94.19 373.93 143.03 4.863 38.04 12.012 75.82 17.008 113.88-30.934-9.52-61.588-24.36-91.412-36.93-42.218-17.79-84.718-34.85-126.828-52.92l-97.13-40.77c-18.882-7.94-38.072-15.48-56.392-24.66-6.389-33.87-13.243-67.68-19.176-101.63m208.26-303.348c11.989 3.7 24.921 5.897 37.186 8.709 28.173 6.459 56.536 12.5 84.466 19.937 6.232 24.788 8.989 51.452 13.34 76.728l27.003 156.364 12.319 68.3c1.885 9.99 5.563 21.6 5.563 31.71l-1.678.03a7145 7145 0 0 0-76.579-30.6c-18.188-7.04-37.001-13.4-54.684-21.62-12.832-58.18-20.915-118.012-31.36-176.699l-12.979-73.147c-2.423-13.75-5.946-28.194-6.524-42.122-.254-6.132 1.601-12 3.927-17.59" fill="#FEFEFE"/><path d="M643.281 1037.34c12.681 5.42 25.016 13.26 37.473 19.4a1202 1202 0 0 0 77.754 34.57c1.384 7.9 2.514 15.95 5.05 23.56 10.642 4.81 22.004 8.53 32.858 12.89 37.91 15.22 76.267 29.42 113.91 45.29 25.381-5.96 52.751-19.95 77.411-29.26a11546 11546 0 0 0 219.403-86.64c23.09 6.72 45.66 14.45 68.49 21.97-38.47 18.32-79.25 32.33-118.38 49.28l-155.06 64.13c-36.302 14.85-72.786 29.33-108.457 45.65a5256 5256 0 0 0-101.347-38.35 12912 12912 0 0 1-165.704-63.24l-57.714-22.2c-16.322-6.15-33.7-11.91-49.062-20.14l.339-.81-1.116.14c9.335-7.7 31.454-15 43.017-20.02 27.04-11.74 54.746-23.14 81.135-36.22" fill="#FEFEFE"/><path d="M1178.65 715.002c2.72.065 2.8.01 4.89 1.724 3.7 9.128 8.44 37.546 10.79 49.167 18.02 89.256 33.14 182.043 31.73 273.327-14.35 7.99-30.27 13.8-45.5 19.94l-79.91 31.6-122.743 47.97-40.852 15.78c-6.008 2.38-11.837 5.69-17.995 7.6-1.717.53-3.083.52-4.849.36-2.616-1.96-2.36-3.58-3.066-6.7-16.053-78.4-27.909-158.09-41.612-236.937-5.28-30.378-9.389-61.58-16.448-91.566 25.12-9.313 50.895-17.183 76.218-25.965l144.587-50.228c34.7-11.69 71.16-21.61 104.76-36.072" fill="#FEFEFE"/><path d="M1130.03 1053.94c1.27 1.28 2.8 3.36 3.4 5.07.5 1.47.83 2.88.2 4.33-2.72 6.32-24.34 11.59-31.22 14.73-1.23-1.29-2.58-2.6-3.53-4.1-1.5-2.35-1.8-4.53-1.18-7.22 3.9-5.27 15.18-5.05 21.18-7.09 3.87-1.32 7.6-3.71 11.15-5.72m-78.15 28.25c.88.93 1.9 2.51 2.42 3.72.94 2.16 1.38 3.74.57 5.99-9.52 4.62-34.77 15.51-44.61 16.36-2.73.23-3.69-1.22-5.69-2.81-1.13-3.98-2.19-7.37-.1-11.27.86-1.61 1.17-1.3 2.76-1.76 3.13 1.54 3.67 2.98 5.55 5.84 11.4-2.84 30.85-7.73 39.1-16.07m150.16-95.649c.34.146.7.247 1.02.438 1.7 1.008 2.45 2.093 3.04 3.961 2.27 7.23 3.3 24.27-.22 31.04-4.53 8.7-15.51 16.49-24.72 19.42-4.68 1.48-9.4 1.58-13.74-.95-5.41-3.16-6.72-9.8-8.33-15.37-.3-3.78-.77-6.69.98-10.1l1.49.05c4.87 5.33 5.98 12.99 10.13 18.81 1.37 1.92.52 1.33 2.89 1.77 6.75-1.74 15.47-7.55 20.26-12.59 8.39-8.81 3.66-20.56 3.75-31.245.02-2.851 1.48-3.372 3.45-5.234" fill="#401719"/><path d="M1157.11 743.098c3.53-.276 7.57-.529 10.73 1.404 3.76 2.292 5.14 6.423 6.22 10.427 4.65 17.215 7.05 35.662 10.37 53.218 6.82 36.084 12.98 71.968 17.37 108.444 1.64 13.652 3.99 27.89 3.8 41.64-.08 5.254-.62 11.425-3.52 15.964-7.18 11.219-28.98 20.217-40.71 26.395-56.88 29.98-114.5 53.93-174.886 75.81-19.463 7.05-39.551 15.57-59.749 20.08 2.344 10.13 3.561 20.57 5.785 30.76 18.672-4.69 37.696-11.93 55.343-19.58.048-6.11-1.115-16.8 2.268-22.02 2.059 1.66 1.914 3.09 2.538 5.57 1.474 5.45 3.392 12.17 2.419 17.82-.414 2.4-1.419 4.01-3.402 5.42-9.297 6.63-52.721 21.93-63.191 19.64-2.175-.48-2.877-.96-3.869-3-3.746-7.71-10.904-66.33-13.144-80.35l-20.289-126.032c-3.707-22.988-8.001-46.063-10.923-69.155-.621-4.91-1.517-10.548.176-15.291 13.342-9.7 99.201-36.096 121.614-43.802l95.13-32.668c19.94-6.936 39.77-14.409 59.92-20.694" fill="#401719"/><path d="M1159.24 751.147c1.76-.043 2.96.136 4.66.486.83 1.01.99 1.1 1.64 2.476 4.13 8.775 5.4 26.849 7.27 36.802 4.84 25.69 31.32 160.155 23.14 176.669-6.07 12.263-30.1 21.664-41.77 27.671-73.88 38.039-149.48 66.879-228.067 93.559-6.116-25.77-8.574-53.11-12.844-79.29l-26.46-163.654c10.612-6.07 23.918-9.409 35.478-13.312l54.989-18.706 111.374-38.219c23.41-8.195 46.8-17.537 70.59-24.482" fill="#FEFEFE"/><path d="M1146.15 763.028c1.86-.165 2.23-.16 3.88.379.61 1.067 1.14 1.994 1.47 3.192 3.04 11.092 2.62 25.046 3.54 36.673 2.76 35.085 10.96 143.371-4.45 172.885-2.8 5.342-6.95 9.745-11.71 13.377-12.9 9.821-29.02 16.656-43.58 23.616a1022 1022 0 0 1-133.504 53.41c-7.395 2.37-22.819 8.18-29.934 3.87-3.59-2.17-4.188-11.33-4.878-15.2a5742 5742 0 0 0-18.549-118.205c-4.046-24.135-9.137-48.283-11.827-72.61-.402-3.64-1.418-9.301.123-12.671 1.329-2.906 4.725-5.067 7.563-6.209 10.6-4.266 21.896-7.516 32.748-11.159l65.318-21.846z" fill="#7B504F"/><path d="M1074.65 829.772c3.05.05 5.42-.019 7.84 2.173 2.08 1.887 2.29 3.334 2.51 6.004-1.39 2.985-2.24 3.45-4.83 5.348-2.53-.169-5.14-.393-7.3-1.918-2.21-1.559-2.25-2.814-2.65-5.25.82-3.032 2.24-4.297 4.43-6.357m18.37-18.727c2.34-.052 4.6.018 6.87.596 3.6.914 6.88 3.547 8.68 6.787 1.61 2.917 1.7 5.836.7 8.948-1.35 4.219-5.08 6.219-8.8 7.999-2.03.104-4.13.234-6.16-.061a14.16 14.16 0 0 1-9.54-6.007c-1.77-2.587-2.38-5.604-1.62-8.664 1.31-5.257 5.39-7.422 9.87-9.598m2.19 36.031c2.57-.137 5.03-.128 7.56.37 4.44.873 8.7 3.699 11.07 7.58 1.95 3.193 2.34 6.77 1.3 10.355-1.58 5.477-6.34 8.161-11.11 10.466-3.1.291-6.38.727-9.45.017-4.17-.962-8.15-3.781-10.19-7.568-1.75-3.239-1.95-7.019-.7-10.47 2.05-5.667 6.41-8.16 11.52-10.75m-44.53 20.069c4.28 3.731 5.78 20.865 6.83 26.826-42.22 15.821-85.496 29.55-127.231 46.521-4.016-5.275-5.121-19.89-6.442-26.679 14.198-7.268 30.074-12.275 45.011-17.824a1838 1838 0 0 1 81.832-28.844m-12.01-43.115c1.43-.099 2.05.027 3.39.396 3.5 7.354 4.18 18.526 5.61 26.581-41.96 15.068-83.859 30.614-126.213 44.544l-1.317-.133c-4.543-7.157-5.903-21.113-7.888-29.589 42.215-13.656 83.935-29.055 126.418-41.799" fill="#FEFEFE"/></svg>