<svg xmlns="http://www.w3.org/2000/svg" width="156" height="156" style="shape-rendering:geometricPrecision;text-rendering:geometricPrecision;image-rendering:optimizeQuality;fill-rule:evenodd;clip-rule:evenodd"><path style="opacity:.972" fill="#5cc031" d="M58.5-.5h6q5.935 3.83 7.5 11a772 772 0 0 0 2.5 31q1.834 1.67 4 .5a179 179 0 0 1 17-6.5 79.3 79.3 0 0 0 8 19 781 781 0 0 0 25-21.5q9.058-5.714 16.5 1.5a392 392 0 0 0 10.5 24v8q-3.957 3.486-9 5.5a416 416 0 0 0-35 4 640 640 0 0 0 9 18.5 274 274 0 0 1-20 9.5 406 406 0 0 0 22.5 25.5q5.592 8.49-1.5 15.5a789 789 0 0 0-23 10.5h-10q-3.9-4.295-5.5-10a775 775 0 0 0-3-32l-1-1a469 469 0 0 1-19.5 8 7524 7524 0 0 0-6.5-17q-.582-1.392-2-2A371 371 0 0 0 26.5 123q-9.213 7.563-16.5-1.5a191 191 0 0 0-10.5-23v-9q2.792-3.427 7-5.5A2583 2583 0 0 0 42 80.5q-2.097-10.017-7.5-19a225 225 0 0 1 18-8.5 3.94 3.94 0 0 0 1-2A253 253 0 0 1 31 24.5q-4.146-8.785 3.5-14.5a402 402 0 0 0 24-10.5m2 11q.925.165 1.5 1a552 552 0 0 0 4 35q1.955 9.6 11.5 7.5A100 100 0 0 0 88 49.5q4.608 5.749 7 13 2.69 2.205 6 3a107 107 0 0 0 10.5-4.5 667 667 0 0 1 23-20.5q6.692 9.513 10 21a3.65 3.65 0 0 1-1 1.5 621 621 0 0 0-33 3q-8.311.81-10 9a77 77 0 0 0 5 13.5 426 426 0 0 1-14.5 9q-1.459 9.604 5 17a134.5 134.5 0 0 1 18.5 20.5 3.94 3.94 0 0 1-1 2 24124 24124 0 0 0-19.5 8.5q-1.676-2.174-2-5a1292 1292 0 0 0-3-31q-2.442-10.096-12.5-7.5a67 67 0 0 0-10 4.5 65.8 65.8 0 0 1-6.5-13q-2.69-2.205-6-3-6.894 1.323-12.5 5.5A177 177 0 0 1 20 115.5 100 100 0 0 1 10.5 95a3.94 3.94 0 0 1 1-2 2339 2339 0 0 1 32-3q12.432-1.422 9.5-13.5a41.4 41.4 0 0 0-4.5-9.5 68.7 68.7 0 0 1 14-7q3.685-10.058-3.5-18.5A149.5 149.5 0 0 1 39.5 20a966 966 0 0 1 21-9.5"/></svg>